<?xml version="1.0" standalone="no"?><!DOCTYPE svg PUBLIC "-//W3C//DTD SVG 1.1//EN" "http://www.w3.org/Graphics/SVG/1.1/DTD/svg11.dtd"><svg t="1591150102957" class="icon" viewBox="0 0 1024 1024" version="1.1" xmlns="http://www.w3.org/2000/svg" p-id="1295" xmlns:xlink="http://www.w3.org/1999/xlink" width="200" height="200"><defs><style type="text/css"></style></defs><path d="M72.704 312.32c-16.384 7.168-22.528 28.16-20.48 72.704 2.048 52.736 6.656 57.344 58.88 57.344l39.936 0.512v-15.36c0-14.848-1.024-15.36-28.16-17.92l-28.16-2.56v-61.44L122.88 343.04c27.136-2.56 28.16-3.072 28.16-17.92v-15.36l-33.28-1.024c-18.432-0.512-38.4 1.024-45.056 3.584zM185.344 315.392c-10.24 7.168-11.264 11.776-11.264 57.856 0 66.56 2.048 69.632 55.296 69.632 56.32 0 57.344-1.536 57.344-67.072C286.72 311.808 283.136 307.2 230.4 307.2c-22.016 0-37.376 2.56-45.056 8.192z m59.392 28.672c3.584 3.584 6.144 18.432 6.144 33.28 0 20.992-2.048 27.648-9.728 32.256-19.456 10.24-26.112 1.536-26.112-33.28 0-31.232 2.56-36.864 18.432-37.888 2.56-0.512 7.68 2.048 11.264 5.632zM317.44 375.808V445.44h38.4c22.016 0 46.08-3.072 56.32-7.168 14.848-6.656 17.408-10.24 20.992-31.232 4.608-32.768-0.512-79.36-10.752-89.088-5.632-6.144-20.992-8.704-56.32-9.728l-48.64-2.048v69.632z m74.24 0.512v30.72l-16.384 1.536-16.896 1.536V342.528l16.896 1.536 16.384 1.536v30.72zM460.8 376.32V445.44h97.28v-35.84h-28.16c-24.576 0-28.16-1.024-28.16-10.24 0-8.704 3.584-10.24 20.48-10.24 19.456 0 20.48-1.024 20.48-15.36s-1.024-15.36-20.48-15.36c-14.848 0-20.48-2.048-20.48-7.68 0-6.144 6.656-7.68 28.16-7.68h28.16v-35.84H460.8v69.12zM583.68 336.896c0 25.088 2.56 32.768 17.92 54.272 10.24 14.848 17.92 31.744 17.92 39.936 0 13.312 1.536 14.336 20.48 14.336 19.456 0 20.48-0.512 20.48-15.872 0-10.24 6.656-25.088 17.92-40.448 15.36-20.992 17.92-28.16 17.92-53.248v-29.184l-18.944 1.536c-18.944 1.536-19.456 2.048-20.992 24.576-3.584 51.712-36.864 44.544-36.864-7.68 0-16.896-1.024-17.92-17.92-17.92H583.68v29.696zM721.92 376.832v69.12l19.456-1.536c18.944-1.536 18.944-1.536 20.48-26.112 1.536-23.552 2.048-24.064 19.456-24.064h17.408v51.712l19.456-1.536 18.944-1.536 1.536-68.096 1.536-67.584h-40.96l-1.536 24.064c-1.536 23.552-2.048 24.576-17.92 26.112l-16.896 1.536V307.2h-40.96v69.632zM930.816 356.864l-1.536 50.176-13.824 1.536c-13.312 1.536-14.336 0.512-14.336-16.384 0-17.92-0.512-18.432-20.992-18.432h-21.504l2.56 26.624c3.584 35.328 15.36 45.056 56.32 45.056 25.088 0 32.256-2.048 42.496-12.8 12.288-11.776 12.8-15.872 12.8-69.12V307.2h-40.448l-1.536 49.664zM497.664 602.624c-14.848 25.6-26.624 48.128-26.624 50.176 0 2.048 9.216 2.56 20.48 1.024s21.504-1.024 23.04 1.024c1.024 2.048-1.536 15.36-5.632 28.672-11.776 40.448-5.632 37.888 22.528-8.192 37.888-63.488 37.888-62.464 9.216-58.368-26.624 4.096-27.136 3.072-17.92-29.696 9.728-35.84 1.536-30.72-25.088 15.36zM281.6 630.272c0 13.312 1.536 15.36 11.776 13.824 10.752-1.536 17.92-10.24 18.432-23.552 1.024-10.752-8.704-6.656-10.752 5.12-1.024 6.144-4.608 11.776-8.704 13.312-5.12 1.536-6.144-1.024-3.584-11.264 2.048-7.68 1.024-13.312-2.048-13.312-2.56 0-5.12 7.168-5.12 15.872zM321.024 617.984c4.096 1.536 5.632 7.168 3.584 14.848-2.048 7.68-1.024 12.288 2.56 12.288 3.072 0 5.632-4.096 5.632-9.216s2.56-11.776 6.144-15.36c4.608-4.608 2.56-6.144-8.704-5.632-8.704 0-12.288 1.536-9.216 3.072zM351.744 617.984c-2.048 1.536-3.584 8.704-3.584 15.36 0 9.216 2.56 11.776 12.8 11.776 7.168 0 12.8-2.048 12.8-4.608s-4.608-3.584-10.752-2.048c-8.704 2.56-10.24 1.024-8.704-6.656 1.024-5.632 5.632-9.216 10.752-9.216 4.608 0.512 8.704-1.024 8.704-3.584 0-5.12-17.408-6.144-22.016-1.024zM645.12 619.52c6.656 4.608 6.656 6.144-1.024 12.288-12.8 9.728-11.264 13.312 5.12 13.312 9.728 0 11.776-1.536 6.656-4.608-4.608-3.072-5.12-5.632-1.024-7.68 10.24-6.144 6.144-18.432-5.632-18.432-9.728 0-10.24 1.024-4.096 5.12zM672.768 622.08c-4.608 11.776 1.536 23.04 12.8 23.04s17.408-16.896 9.216-25.088c-8.192-8.192-18.944-7.168-22.016 2.048z m18.432 7.68c0 5.632-3.584 10.24-7.68 10.24-8.704 0-9.216-1.024-4.608-12.288 4.608-11.776 12.288-10.24 12.288 2.048zM716.8 619.52c6.656 4.608 6.656 6.144-1.024 12.288-12.8 9.728-11.264 13.312 5.12 13.312 9.728 0 11.776-1.536 6.656-4.608-4.608-3.072-5.12-5.632-1.024-7.68 10.24-6.144 6.144-18.432-5.632-18.432-9.728 0-10.24 1.024-4.096 5.12zM744.96 624.64c-4.096 12.8 0.512 20.48 12.288 20.48 11.264 0 17.408-16.896 9.216-25.088-8.704-8.704-17.92-6.656-21.504 4.608z m17.92 5.12c0 5.632-3.584 10.24-7.68 10.24-8.704 0-9.216-1.024-4.608-12.288 4.608-11.776 12.288-10.24 12.288 2.048z" p-id="1296"></path></svg>